Normalized EMG Linear Envelopes
nRows=128
nColumns=4

endheader
time	 med_gas_r	  soleus_r	 tib_ant_r	
2	  0.010402	  0.019691	  0.046367	
2.0625	  0.010404	  0.020459	  0.046264	
2.125	  0.010185	  0.022183	  0.046175	
2.1875	  0.009811	  0.023569	  0.046135	
2.25	  0.009373	  0.023694	  0.046180	
2.3125	  0.008928	  0.022931	  0.046254	
2.375	  0.008834	  0.021174	  0.046348	
2.4375	  0.009015	  0.019383	  0.046392	
2.5	  0.009217	  0.018145	  0.046338	
2.5625	  0.009374	  0.017392	  0.046167	
2.625	  0.009671	  0.016910	  0.045952	
2.6875	  0.009939	  0.016909	  0.045654	
2.75	  0.010214	  0.017702	  0.045488	
2.8125	  0.010834	  0.019672	  0.045642	
2.875	  0.011637	  0.022273	  0.046051	
2.9375	  0.012197	  0.024250	  0.046481	
3	  0.012259	  0.024251	  0.046598	
3.0625	  0.011600	  0.023213	  0.046353	
3.125	  0.010631	  0.023014	  0.046022	
3.1875	  0.009883	  0.023529	  0.046066	
3.25	  0.009625	  0.024253	  0.046593	
3.3125	  0.009782	  0.025757	  0.046971	
3.375	  0.010244	  0.028030	  0.046720	
3.4375	  0.010869	  0.030242	  0.046002	
3.5	  0.011347	  0.030461	  0.045319	
3.5625	  0.011576	  0.028520	  0.045035	
3.625	  0.011485	  0.026397	  0.045375	
3.6875	  0.010989	  0.024788	  0.045877	
3.75	  0.010504	  0.023866	  0.045692	
3.8125	  0.010180	  0.023789	  0.044777	
3.875	  0.010032	  0.024184	  0.044068	
3.9375	  0.010158	  0.024056	  0.044066	
4	  0.010511	  0.023329	  0.044573	
4.0625	  0.010843	  0.023049	  0.045023	
4.125	  0.010813	  0.023098	  0.045365	
4.1875	  0.010452	  0.022725	  0.045630	
4.25	  0.009984	  0.021624	  0.045424	
4.3125	  0.009608	  0.020002	  0.044160	
4.375	  0.009512	  0.018886	  0.041549	
4.4375	  0.009559	  0.018347	  0.037846	
4.5	  0.009693	  0.017814	  0.034880	
4.5625	  0.010091	  0.018011	  0.037106	
4.625	  0.010877	  0.020565	  0.052070	
4.6875	  0.012426	  0.027409	  0.089147	
4.75	  0.015155	  0.039846	  0.154766	
4.8125	  0.018703	  0.058377	  0.246580	
4.875	  0.022384	  0.079674	  0.354085	
4.9375	  0.025766	  0.097203	  0.446449	
5	  0.028813	  0.108693	  0.495838	
5.0625	  0.030596	  0.113885	  0.504505	
5.125	  0.031437	  0.117065	  0.493290	
5.1875	  0.031632	  0.119230	  0.482018	
5.25	  0.032531	  0.119212	  0.482165	
5.3125	  0.034061	  0.115437	  0.497679	
5.375	  0.035238	  0.110748	  0.514269	
5.4375	  0.035643	  0.110265	  0.517386	
5.5	  0.036751	  0.119771	  0.511372	
5.5625	  0.039393	  0.135090	  0.508071	
5.625	  0.041991	  0.146527	  0.508968	
5.6875	  0.043895	  0.151469	  0.507731	
5.75	  0.045562	  0.155792	  0.519530	
5.8125	  0.046620	  0.160640	  0.556587	
5.875	  0.047897	  0.167208	  0.608798	
5.9375	  0.050080	  0.175929	  0.654207	
6	  0.053394	  0.188158	  0.671361	
6.0625	  0.056286	  0.203120	  0.671630	
6.125	  0.057540	  0.215355	  0.671771	
6.1875	  0.057450	  0.226085	  0.674664	
6.25	  0.057552	  0.243215	  0.683731	
6.3125	  0.058474	  0.261392	  0.686346	
6.375	  0.059941	  0.273305	  0.678059	
6.4375	  0.062382	  0.273016	  0.665002	
6.5	  0.065246	  0.266768	  0.667473	
6.5625	  0.067805	  0.262223	  0.701089	
6.625	  0.067783	  0.254042	  0.739877	
6.6875	  0.065277	  0.243825	  0.749979	
6.75	  0.062207	  0.241373	  0.742424	
6.8125	  0.059789	  0.242919	  0.725622	
6.875	  0.058169	  0.241520	  0.712366	
6.9375	  0.057113	  0.236034	  0.724428	
7	  0.056637	  0.231014	  0.758557	
7.0625	  0.056720	  0.229063	  0.792559	
7.125	  0.056154	  0.227932	  0.798711	
7.1875	  0.056778	  0.235628	  0.772952	
7.25	  0.060081	  0.254072	  0.712263	
7.3125	  0.065081	  0.279146	  0.638456	
7.375	  0.068695	  0.293798	  0.591928	
7.4375	  0.068385	  0.287285	  0.577394	
7.5	  0.064971	  0.268989	  0.584133	
7.5625	  0.060411	  0.251732	  0.606818	
7.625	  0.057068	  0.242784	  0.630456	
7.6875	  0.055518	  0.239153	  0.653351	
7.75	  0.055498	  0.231454	  0.669410	
7.8125	  0.055821	  0.215668	  0.663861	
7.875	  0.055302	  0.197388	  0.635537	
7.9375	  0.054343	  0.185763	  0.589311	
8	  0.053618	  0.181375	  0.542921	
8.0625	  0.052447	  0.178950	  0.520431	
8.125	  0.051443	  0.180432	  0.534350	
8.1875	  0.051409	  0.187761	  0.589484	
8.25	  0.051415	  0.198555	  0.657096	
8.3125	  0.051724	  0.210078	  0.705562	
8.375	  0.052864	  0.225793	  0.724878	
8.4375	  0.052871	  0.237490	  0.721927	
8.5	  0.051555	  0.236712	  0.694119	
8.5625	  0.050943	  0.228108	  0.677893	
8.625	  0.050650	  0.216302	  0.683944	
8.6875	  0.050502	  0.205541	  0.691347	
8.75	  0.052445	  0.208255	  0.706096	
8.8125	  0.055535	  0.222870	  0.730568	
8.875	  0.056613	  0.230254	  0.738756	
8.9375	  0.054316	  0.221005	  0.706973	
9	  0.049328	  0.201398	  0.641820	
9.0625	  0.043740	  0.184674	  0.586559	
9.125	  0.040129	  0.184475	  0.573550	
9.1875	  0.039011	  0.200308	  0.578720	
9.25	  0.039067	  0.215471	  0.561681	
9.3125	  0.038569	  0.211202	  0.509569	
9.375	  0.037125	  0.185866	  0.450473	
9.4375	  0.035264	  0.155969	  0.410996	
9.5	  0.032233	  0.135610	  0.390058	
9.5625	  0.028357	  0.125180	  0.379655	
9.625	  0.024566	  0.115592	  0.358144	
9.6875	  0.020199	  0.100221	  0.309195	
9.75	  0.014689	  0.077682	  0.241538	
9.8125	  0.010061	  0.054802	  0.169000	
9.875	  0.010013	  0.037760	  0.107723	
9.9375	  0.019329	  0.029329	  0.069951	
